<svg xmlns="http://www.w3.org/2000/svg" version="1.1" xmlns:xlink="http://www.w3.org/1999/xlink" xmlns:svgjs="http://svgjs.com/svgjs" width="1440" height="560" preserveAspectRatio="none" viewBox="0 0 1440 560"><g mask="url(&quot;#SvgjsMask1113&quot;)" fill="none"><path d="M902.807,386.064C956.157,384.134,1012.13,373.599,1040.702,328.504C1071.055,280.598,1070.426,217.532,1039.853,169.766C1011.288,125.137,955.781,114.278,902.807,113.061C846.856,111.775,786.228,117.174,754.398,163.207C718.613,214.961,711.604,286.775,746.48,339.146C778.801,387.68,844.534,388.172,902.807,386.064" fill="rgba(19, 151, 219, 0.45)" class="triangle-float3"></path><path d="M728.105,628.272C779.107,631.91,828.489,605.001,854.382,560.91C880.592,516.279,878.232,461.09,852.736,416.047C826.84,370.297,780.626,335.537,728.105,337.82C678.538,339.974,642.239,381.321,620.925,426.123C602.65,464.537,609.675,507.291,629.602,544.874C651.202,585.613,682.111,624.991,728.105,628.272" fill="rgba(19, 151, 219, 0.45)" class="triangle-float1"></path><path d="M158.16755854519926 555.3393070050975L198.63815585961783 455.17106364227516 98.46991249679556 414.7004663278566 57.99931518237699 514.8687096906789z" fill="rgba(19, 151, 219, 0.45)" class="triangle-float3"></path><path d="M1029.2109332626599 635.3134527230824L1126.1734730664639 567.4195514284997 1058.2795717718811 470.4570116246958 961.3170319680772 538.3509129192785z" fill="rgba(19, 151, 219, 0.45)" class="triangle-float3"></path><path d="M136.35777096390726 353.4236208473162L69.72315282391716 349.9314484872259 97.80220335377673 451.6294618772562z" fill="rgba(19, 151, 219, 0.45)" class="triangle-float2"></path><path d="M875.6624830023362 1.148762494203055L783.0388515232229 119.70160454922963 901.5916935782494 212.32523602834297 994.2153250573627 93.77239397331638z" fill="rgba(19, 151, 219, 0.45)" class="triangle-float2"></path><path d="M536.9665045991928 152.67855543442644L599.4665173691178 60.018475970187694 429.2263917877972 12.5984965474195z" fill="rgba(19, 151, 219, 0.45)" class="triangle-float1"></path><path d="M349.47049686198284 428.7399426582429L387.018501637188 526.5558392992004 484.83439827814556 489.00783452399526 447.28639350294037 391.1919378830377z" fill="rgba(19, 151, 219, 0.45)" class="triangle-float1"></path><path d="M293.2513020208204 73.56801270269281L121.78526219030294 55.380973138177694 180.67980546999692 194.12782225775408z" fill="rgba(19, 151, 219, 0.45)" class="triangle-float3"></path><path d="M676.1933314915702 191.49409360363288L587.7464264708584 129.56290397681224 614.2621418647495 279.94099862434473z" fill="rgba(19, 151, 219, 0.45)" class="triangle-float2"></path></g><defs><mask id="SvgjsMask1113"><rect width="1440" height="560" fill="#ffffff"></rect></mask><style>
            @keyframes float1 {
                0%{transform: translate(0, 0)}
                50%{transform: translate(-10px, 0)}
                100%{transform: translate(0, 0)}
            }

            .triangle-float1 {
                animation: float1 5s infinite;
            }

            @keyframes float2 {
                0%{transform: translate(0, 0)}
                50%{transform: translate(-5px, -5px)}
                100%{transform: translate(0, 0)}
            }

            .triangle-float2 {
                animation: float2 4s infinite;
            }

            @keyframes float3 {
                0%{transform: translate(0, 0)}
                50%{transform: translate(0, -10px)}
                100%{transform: translate(0, 0)}
            }

            .triangle-float3 {
                animation: float3 6s infinite;
            }
        </style></defs></svg>